<svg width="21" height="22" viewBox="0 0 21 22" fill="none" xmlns="http://www.w3.org/2000/svg">
<path d="M21 3.58504V22H0V2.60101C0.995543 2.61577 1.99075 2.63018 2.99888 2.64494C2.99888 2.89833 2.99752 3.13204 2.99888 3.36539C3.00399 4.11079 3.27763 4.72651 3.82799 5.21255C4.60571 5.8989 5.85618 5.9091 6.64138 5.24031C7.22271 4.74513 7.50112 4.11044 7.50282 3.33868C7.50316 3.112 7.50282 2.88497 7.50282 2.65232H13.5139C13.5139 2.96827 13.4979 3.27226 13.5166 3.57379C13.6041 4.99255 14.9049 5.99344 16.2466 5.68312C17.2442 5.45223 17.9736 4.53849 18.0011 3.47961C18.0083 3.20654 18.0021 2.93277 18.0021 2.66251C18.0382 2.65127 18.0539 2.64213 18.0695 2.64213C18.9994 2.64108 19.9292 2.64143 20.8588 2.63862C20.9612 2.63862 20.9799 2.69028 20.9809 2.77989C20.984 3.04839 20.9929 3.31689 20.9993 3.58539L21 3.58504ZM10.4993 8.05744C7.58383 8.05744 4.66867 8.05744 1.75318 8.05744C1.58595 8.05744 1.50222 8.14225 1.50199 8.31188C1.50199 12.2831 1.50199 16.2544 1.50199 20.2256C1.50199 20.38 1.57596 20.4573 1.72391 20.4576C7.57157 20.4576 13.4192 20.4576 19.2669 20.4576C19.4228 20.4576 19.5008 20.3784 19.5011 20.22C19.5011 16.2428 19.5011 12.2659 19.5011 8.28868C19.5011 8.13475 19.4271 8.05779 19.2792 8.05779C16.3524 8.05779 13.4257 8.05779 10.499 8.05779L10.4993 8.05744Z" fill="#0000FF"/>
<path d="M15.9627 0C16.1768 0.100511 16.4113 0.17115 16.6009 0.307859C17.0137 0.604824 17.2036 1.0399 17.2036 1.55722C17.2036 2.13042 17.2121 2.70431 17.1856 3.2761C17.1441 4.17192 16.1999 4.83051 15.3647 4.59435C14.7851 4.43057 14.2742 3.88866 14.2606 3.18367C14.249 2.59326 14.2381 2.00144 14.2681 1.41243C14.3031 0.721502 14.7589 0.199265 15.4086 0.0365495C15.4464 0.0270607 15.4831 0.0123003 15.5206 0C15.6679 0 15.8157 0 15.963 0L15.9627 0Z" fill="#0000FF"/>
<path d="M5.44568 0C5.79285 0.102268 6.11482 0.244952 6.35478 0.543323C6.57805 0.820958 6.69547 1.14042 6.6999 1.49396C6.70738 2.0907 6.71862 2.68955 6.6822 3.28454C6.63591 4.04399 6.01986 4.607 5.25644 4.63933C4.57199 4.6685 3.91136 4.13326 3.78678 3.43073C3.75139 3.23112 3.75513 3.02236 3.75479 2.81783C3.75445 2.34971 3.75683 1.88125 3.76875 1.41313C3.78508 0.761214 4.27418 0.186965 4.9103 0.0361981C4.9423 0.0284665 4.97225 0.0123003 5.00288 0C5.15025 0 5.29797 0 5.44534 0L5.44568 0Z" fill="#0000FF"/>
<path d="M6.10428 19.1049H3.76535C3.76093 19.0402 3.75344 18.9833 3.75344 18.9267C3.75276 18.3296 3.75752 17.7325 3.7497 17.1357C3.74765 16.986 3.79632 16.9498 3.93417 16.9509C4.60297 16.9576 5.27177 16.9565 5.94057 16.9516C6.06718 16.9505 6.11994 16.9769 6.1179 17.1241C6.11007 17.7269 6.11517 18.3299 6.11449 18.9326C6.11449 18.9843 6.10837 19.036 6.10394 19.1049H6.10428Z" fill="#0000FF"/>
<path d="M11.3277 19.1038C11.3277 18.9843 11.3277 18.8803 11.3277 18.7762C11.3277 18.2315 11.3318 17.6868 11.325 17.1421C11.3233 17.0015 11.3553 16.9484 11.5023 16.9502C12.1773 16.9576 12.8522 16.9533 13.5275 16.954C13.5772 16.954 13.6265 16.9611 13.6953 16.9663C13.6953 17.0359 13.6953 17.0932 13.6953 17.1505C13.6953 17.7423 13.6915 18.3338 13.6976 18.9253C13.699 19.0655 13.6677 19.1192 13.52 19.1175C12.845 19.1098 12.1701 19.1143 11.4949 19.1136C11.4503 19.1136 11.4057 19.1087 11.3277 19.1041V19.1038Z" fill="#0000FF"/>
<path d="M7.51849 19.1137V16.9615C7.58486 16.9583 7.64034 16.9537 7.69616 16.9534C8.35951 16.953 9.02287 16.9579 9.68588 16.9492C9.84143 16.947 9.87546 17.0019 9.87376 17.1505C9.86661 17.7416 9.86764 18.3331 9.87376 18.9242C9.87512 19.0631 9.84585 19.1186 9.69712 19.1168C9.02253 19.1087 8.34794 19.1133 7.67336 19.1133H7.51883L7.51849 19.1137Z" fill="#0000FF"/>
<path d="M17.2204 16.9692V19.1028C17.1683 19.1063 17.1193 19.113 17.0703 19.113C16.3964 19.1137 15.7225 19.1091 15.0486 19.1172C14.9015 19.1189 14.8688 19.0662 14.8705 18.926C14.877 18.3236 14.8746 17.7213 14.8729 17.1189C14.8729 17.0212 14.878 16.9513 15.0046 16.952C15.7184 16.9565 16.4318 16.9544 17.1455 16.9551C17.1673 16.9551 17.1887 16.9629 17.2207 16.9692H17.2204Z" fill="#0000FF"/>
<path d="M6.11552 13.3357C6.11552 13.7774 6.11552 14.2153 6.11552 14.6532C6.11552 14.8757 6.11144 15.0981 6.11688 15.3202C6.11961 15.4278 6.08081 15.4615 5.97836 15.4608C5.28165 15.4573 4.5846 15.4573 3.88789 15.4608C3.78238 15.4611 3.75107 15.42 3.75141 15.3164C3.75447 14.6904 3.75379 14.0642 3.75209 13.4383C3.75209 13.3536 3.77353 13.3096 3.86611 13.31C4.59685 13.3132 5.3276 13.3132 6.05868 13.3146C6.06923 13.3146 6.07979 13.3223 6.11518 13.3364L6.11552 13.3357Z" fill="#0000FF"/>
<path d="M8.67944 11.8811C8.33942 11.8811 7.99907 11.8765 7.65905 11.8835C7.53822 11.886 7.50419 11.8421 7.50521 11.7215C7.50998 11.1128 7.50998 10.5038 7.50521 9.89511C7.50419 9.76789 7.54027 9.72009 7.66858 9.72115C8.34861 9.72607 9.02899 9.72607 9.70936 9.72115C9.83801 9.72009 9.87443 9.77035 9.87341 9.89687C9.86899 10.5056 9.86865 11.1146 9.87341 11.7233C9.87443 11.8459 9.83597 11.886 9.71719 11.8835C9.37139 11.8769 9.02558 11.8811 8.67978 11.8811H8.67944Z" fill="#0000FF"/>
<path d="M12.4982 11.881C12.1586 11.881 11.8185 11.8761 11.4789 11.8835C11.357 11.8863 11.325 11.8406 11.3257 11.7215C11.3301 11.1135 11.3305 10.5052 11.3257 9.89682C11.3247 9.771 11.358 9.7204 11.4877 9.72145C12.1729 9.72637 12.858 9.72602 13.5435 9.72145C13.666 9.72075 13.697 9.77065 13.6963 9.88768C13.6925 10.496 13.6915 11.104 13.697 11.7123C13.698 11.8406 13.6643 11.887 13.5343 11.8835C13.1892 11.8751 12.8434 11.8807 12.4979 11.8807L12.4982 11.881Z" fill="#0000FF"/>
<path d="M17.2309 11.8814C16.9565 11.8814 16.7084 11.8814 16.4603 11.8814C15.9899 11.8814 15.5199 11.8779 15.0495 11.8842C14.9226 11.886 14.8685 11.8572 14.8702 11.711C14.8773 11.1086 14.8763 10.5059 14.8708 9.90316C14.8695 9.7661 14.9113 9.72006 15.0454 9.72147C15.7197 9.72709 16.3936 9.72358 17.0678 9.72428C17.1444 9.72428 17.2322 9.70495 17.2316 9.83709C17.2295 10.509 17.2305 11.181 17.2305 11.8814H17.2309Z" fill="#0000FF"/>
<path d="M11.3386 15.4376V13.322H13.6816C13.6867 13.3789 13.6949 13.4295 13.6949 13.4801C13.6959 14.0832 13.6949 14.6862 13.6959 15.2893C13.6959 15.3828 13.6997 15.4612 13.5686 15.4601C12.8542 15.4555 12.1398 15.458 11.4254 15.4566C11.3985 15.4566 11.372 15.4453 11.3386 15.4376Z" fill="#0000FF"/>
<path d="M7.50688 13.3103C7.64643 13.3103 7.76385 13.3103 7.88161 13.3103C8.48779 13.3103 9.0943 13.3142 9.70048 13.3075C9.83424 13.3061 9.87542 13.3462 9.87406 13.485C9.86759 14.0877 9.86793 14.6904 9.87406 15.2932C9.87542 15.4274 9.82982 15.4618 9.70661 15.4608C9.02657 15.4559 8.34654 15.4587 7.66685 15.4583C7.58789 15.4583 7.50552 15.4724 7.50586 15.342C7.50858 14.6753 7.50722 14.0086 7.50722 13.3103H7.50688Z" fill="#0000FF"/>
<path d="M17.2197 15.4583C17.0546 15.4583 16.9028 15.4583 16.751 15.4583C16.1782 15.4583 15.6053 15.4569 15.0325 15.459C14.9369 15.459 14.8705 15.4524 14.8715 15.322C14.8763 14.6838 14.8743 14.0452 14.8749 13.4067C14.8749 13.3842 14.8814 13.3617 14.8872 13.3248H17.2197V15.458V15.4583Z" fill="#0000FF"/>
</svg>
