<svg width="17" height="17" viewBox="0 0 17 17" fill="none" xmlns="http://www.w3.org/2000/svg">
<path d="M16.087 14.1807L13.196 11.2907C13.9886 10.1549 14.4569 8.77701 14.4569 7.28797C14.4569 3.41931 11.3208 0.283157 7.4521 0.283157C3.58345 0.283157 0.447266 3.41931 0.447266 7.28797C0.447266 11.1566 3.58342 14.2928 7.45208 14.2928C8.94112 14.2928 10.3191 13.8245 11.4548 13.0319L14.3448 15.9219C14.8261 16.4032 15.6057 16.4032 16.087 15.9219C16.5673 15.4416 16.5673 14.662 16.087 14.1807ZM7.45208 12.2914C4.68917 12.2914 2.44865 10.0509 2.44865 7.28797C2.44865 4.52507 4.6892 2.28454 7.45208 2.28454C10.215 2.28454 12.4555 4.52509 12.4555 7.28797C12.4555 10.0509 10.215 12.2914 7.45208 12.2914Z" fill="#1400FF"/>
</svg>
